<svg id="visual" viewBox="0 0 900 600" width="900" height="600" xmlns="http://www.w3.org/2000/svg" xmlns:xlink="http://www.w3.org/1999/xlink" version="1.1"><rect x="0" y="0" width="900" height="600" fill="#002233"></rect><path d="M0 382L21.5 383.5C43 385 86 388 128.8 405.5C171.7 423 214.3 455 257.2 457.2C300 459.3 343 431.7 385.8 428.8C428.7 426 471.3 448 514.2 446C557 444 600 418 642.8 408.5C685.7 399 728.3 406 771.2 409.7C814 413.3 857 413.7 878.5 413.8L900 414L900 601L878.5 601C857 601 814 601 771.2 601C728.3 601 685.7 601 642.8 601C600 601 557 601 514.2 601C471.3 601 428.7 601 385.8 601C343 601 300 601 257.2 601C214.3 601 171.7 601 128.8 601C86 601 43 601 21.5 601L0 601Z" fill="#0066FF" stroke-linecap="round" stroke-linejoin="miter"></path></svg>