<svg id="visual" viewBox="0 0 900 600" width="900" height="600" xmlns="http://www.w3.org/2000/svg" xmlns:xlink="http://www.w3.org/1999/xlink" version="1.1"><rect x="0" y="0" width="900" height="600" fill="#002233"></rect><path d="M0 137L21.5 143.2C43 149.3 86 161.7 128.8 152.3C171.7 143 214.3 112 257.2 120C300 128 343 175 385.8 183.7C428.7 192.3 471.3 162.7 514.2 149.2C557 135.7 600 138.3 642.8 144.7C685.7 151 728.3 161 771.2 172.2C814 183.3 857 195.7 878.5 201.8L900 208L900 0L878.5 0C857 0 814 0 771.2 0C728.3 0 685.7 0 642.8 0C600 0 557 0 514.2 0C471.3 0 428.7 0 385.8 0C343 0 300 0 257.2 0C214.3 0 171.7 0 128.8 0C86 0 43 0 21.5 0L0 0Z" fill="#0066FF" stroke-linecap="round" stroke-linejoin="miter"></path></svg>